<mxfile host="app.diagrams.net" modified="2024-01-04T11:49:09.429Z" agent="Mozilla/5.0 (Macintosh; Intel Mac OS X 10_15_7) AppleWebKit/537.36 (KHTML, like Gecko) Chrome/120.0.0.0 Safari/537.36" etag="UiDi0Se2WOXZ9SU-cix7" version="22.1.16" type="github" pages="6">
  <diagram name="Page-1" id="03018318-947c-dd8e-b7a3-06fadd420f32">
    <mxGraphModel dx="2605" dy="891" grid="1" gridSize="10" guides="1" tooltips="1" connect="1" arrows="1" fold="1" page="1" pageScale="1" pageWidth="1100" pageHeight="850" background="none" math="0" shadow="0">
      <root>
        <mxCell id="0" />
        <mxCell id="1" parent="0" />
        <mxCell id="7FymyZqYQRA0W6Gg-ok5-44" value="" style="edgeStyle=entityRelationEdgeStyle;fontSize=12;html=1;endArrow=ERzeroToMany;endFill=1;rounded=0;exitX=1;exitY=0.5;exitDx=0;exitDy=0;entryX=0;entryY=0.5;entryDx=0;entryDy=0;" edge="1" parent="1" source="7FymyZqYQRA0W6Gg-ok5-49" target="7FymyZqYQRA0W6Gg-ok5-88">
          <mxGeometry width="100" height="100" relative="1" as="geometry">
            <mxPoint x="452.94000000000005" y="80.32000000000005" as="sourcePoint" />
            <mxPoint x="580" y="80" as="targetPoint" />
            <Array as="points">
              <mxPoint x="512.94" y="90" />
            </Array>
          </mxGeometry>
        </mxCell>
        <mxCell id="7FymyZqYQRA0W6Gg-ok5-48" value="ユーザー" style="shape=table;startSize=30;container=1;collapsible=1;childLayout=tableLayout;fixedRows=1;rowLines=0;fontStyle=1;align=center;resizeLast=1;html=1;" vertex="1" parent="1">
          <mxGeometry x="-10" y="60" width="180" height="240" as="geometry" />
        </mxCell>
        <mxCell id="7FymyZqYQRA0W6Gg-ok5-49" value="" style="shape=tableRow;horizontal=0;startSize=0;swimlaneHead=0;swimlaneBody=0;fillColor=none;collapsible=0;dropTarget=0;points=[[0,0.5],[1,0.5]];portConstraint=eastwest;top=0;left=0;right=0;bottom=1;" vertex="1" parent="7FymyZqYQRA0W6Gg-ok5-48">
          <mxGeometry y="30" width="180" height="30" as="geometry" />
        </mxCell>
        <mxCell id="7FymyZqYQRA0W6Gg-ok5-50" value="PK" style="shape=partialRectangle;connectable=0;fillColor=none;top=0;left=0;bottom=0;right=0;fontStyle=1;overflow=hidden;whiteSpace=wrap;html=1;" vertex="1" parent="7FymyZqYQRA0W6Gg-ok5-49">
          <mxGeometry width="30" height="30" as="geometry">
            <mxRectangle width="30" height="30" as="alternateBounds" />
          </mxGeometry>
        </mxCell>
        <mxCell id="7FymyZqYQRA0W6Gg-ok5-51" value="id" style="shape=partialRectangle;connectable=0;fillColor=none;top=0;left=0;bottom=0;right=0;align=left;spacingLeft=6;fontStyle=5;overflow=hidden;whiteSpace=wrap;html=1;" vertex="1" parent="7FymyZqYQRA0W6Gg-ok5-49">
          <mxGeometry x="30" width="150" height="30" as="geometry">
            <mxRectangle width="150" height="30" as="alternateBounds" />
          </mxGeometry>
        </mxCell>
        <mxCell id="7FymyZqYQRA0W6Gg-ok5-52" value="" style="shape=tableRow;horizontal=0;startSize=0;swimlaneHead=0;swimlaneBody=0;fillColor=none;collapsible=0;dropTarget=0;points=[[0,0.5],[1,0.5]];portConstraint=eastwest;top=0;left=0;right=0;bottom=0;" vertex="1" parent="7FymyZqYQRA0W6Gg-ok5-48">
          <mxGeometry y="60" width="180" height="30" as="geometry" />
        </mxCell>
        <mxCell id="7FymyZqYQRA0W6Gg-ok5-53" value="" style="shape=partialRectangle;connectable=0;fillColor=none;top=0;left=0;bottom=0;right=0;editable=1;overflow=hidden;whiteSpace=wrap;html=1;" vertex="1" parent="7FymyZqYQRA0W6Gg-ok5-52">
          <mxGeometry width="30" height="30" as="geometry">
            <mxRectangle width="30" height="30" as="alternateBounds" />
          </mxGeometry>
        </mxCell>
        <mxCell id="7FymyZqYQRA0W6Gg-ok5-54" value="姓" style="shape=partialRectangle;connectable=0;fillColor=none;top=0;left=0;bottom=0;right=0;align=left;spacingLeft=6;overflow=hidden;whiteSpace=wrap;html=1;" vertex="1" parent="7FymyZqYQRA0W6Gg-ok5-52">
          <mxGeometry x="30" width="150" height="30" as="geometry">
            <mxRectangle width="150" height="30" as="alternateBounds" />
          </mxGeometry>
        </mxCell>
        <mxCell id="7FymyZqYQRA0W6Gg-ok5-55" value="" style="shape=tableRow;horizontal=0;startSize=0;swimlaneHead=0;swimlaneBody=0;fillColor=none;collapsible=0;dropTarget=0;points=[[0,0.5],[1,0.5]];portConstraint=eastwest;top=0;left=0;right=0;bottom=0;" vertex="1" parent="7FymyZqYQRA0W6Gg-ok5-48">
          <mxGeometry y="90" width="180" height="30" as="geometry" />
        </mxCell>
        <mxCell id="7FymyZqYQRA0W6Gg-ok5-56" value="" style="shape=partialRectangle;connectable=0;fillColor=none;top=0;left=0;bottom=0;right=0;editable=1;overflow=hidden;whiteSpace=wrap;html=1;" vertex="1" parent="7FymyZqYQRA0W6Gg-ok5-55">
          <mxGeometry width="30" height="30" as="geometry">
            <mxRectangle width="30" height="30" as="alternateBounds" />
          </mxGeometry>
        </mxCell>
        <mxCell id="7FymyZqYQRA0W6Gg-ok5-57" value="名" style="shape=partialRectangle;connectable=0;fillColor=none;top=0;left=0;bottom=0;right=0;align=left;spacingLeft=6;overflow=hidden;whiteSpace=wrap;html=1;" vertex="1" parent="7FymyZqYQRA0W6Gg-ok5-55">
          <mxGeometry x="30" width="150" height="30" as="geometry">
            <mxRectangle width="150" height="30" as="alternateBounds" />
          </mxGeometry>
        </mxCell>
        <mxCell id="7FymyZqYQRA0W6Gg-ok5-58" value="" style="shape=tableRow;horizontal=0;startSize=0;swimlaneHead=0;swimlaneBody=0;fillColor=none;collapsible=0;dropTarget=0;points=[[0,0.5],[1,0.5]];portConstraint=eastwest;top=0;left=0;right=0;bottom=0;" vertex="1" parent="7FymyZqYQRA0W6Gg-ok5-48">
          <mxGeometry y="120" width="180" height="30" as="geometry" />
        </mxCell>
        <mxCell id="7FymyZqYQRA0W6Gg-ok5-59" value="" style="shape=partialRectangle;connectable=0;fillColor=none;top=0;left=0;bottom=0;right=0;editable=1;overflow=hidden;whiteSpace=wrap;html=1;" vertex="1" parent="7FymyZqYQRA0W6Gg-ok5-58">
          <mxGeometry width="30" height="30" as="geometry">
            <mxRectangle width="30" height="30" as="alternateBounds" />
          </mxGeometry>
        </mxCell>
        <mxCell id="7FymyZqYQRA0W6Gg-ok5-60" value="メールアドレス" style="shape=partialRectangle;connectable=0;fillColor=none;top=0;left=0;bottom=0;right=0;align=left;spacingLeft=6;overflow=hidden;whiteSpace=wrap;html=1;" vertex="1" parent="7FymyZqYQRA0W6Gg-ok5-58">
          <mxGeometry x="30" width="150" height="30" as="geometry">
            <mxRectangle width="150" height="30" as="alternateBounds" />
          </mxGeometry>
        </mxCell>
        <mxCell id="7FymyZqYQRA0W6Gg-ok5-159" value="" style="shape=tableRow;horizontal=0;startSize=0;swimlaneHead=0;swimlaneBody=0;fillColor=none;collapsible=0;dropTarget=0;points=[[0,0.5],[1,0.5]];portConstraint=eastwest;top=0;left=0;right=0;bottom=0;" vertex="1" parent="7FymyZqYQRA0W6Gg-ok5-48">
          <mxGeometry y="150" width="180" height="30" as="geometry" />
        </mxCell>
        <mxCell id="7FymyZqYQRA0W6Gg-ok5-160" value="" style="shape=partialRectangle;connectable=0;fillColor=none;top=0;left=0;bottom=0;right=0;editable=1;overflow=hidden;whiteSpace=wrap;html=1;" vertex="1" parent="7FymyZqYQRA0W6Gg-ok5-159">
          <mxGeometry width="30" height="30" as="geometry">
            <mxRectangle width="30" height="30" as="alternateBounds" />
          </mxGeometry>
        </mxCell>
        <mxCell id="7FymyZqYQRA0W6Gg-ok5-161" value="パスワード" style="shape=partialRectangle;connectable=0;fillColor=none;top=0;left=0;bottom=0;right=0;align=left;spacingLeft=6;overflow=hidden;whiteSpace=wrap;html=1;" vertex="1" parent="7FymyZqYQRA0W6Gg-ok5-159">
          <mxGeometry x="30" width="150" height="30" as="geometry">
            <mxRectangle width="150" height="30" as="alternateBounds" />
          </mxGeometry>
        </mxCell>
        <mxCell id="7FymyZqYQRA0W6Gg-ok5-162" value="" style="shape=tableRow;horizontal=0;startSize=0;swimlaneHead=0;swimlaneBody=0;fillColor=none;collapsible=0;dropTarget=0;points=[[0,0.5],[1,0.5]];portConstraint=eastwest;top=0;left=0;right=0;bottom=0;" vertex="1" parent="7FymyZqYQRA0W6Gg-ok5-48">
          <mxGeometry y="180" width="180" height="30" as="geometry" />
        </mxCell>
        <mxCell id="7FymyZqYQRA0W6Gg-ok5-163" value="" style="shape=partialRectangle;connectable=0;fillColor=none;top=0;left=0;bottom=0;right=0;editable=1;overflow=hidden;whiteSpace=wrap;html=1;" vertex="1" parent="7FymyZqYQRA0W6Gg-ok5-162">
          <mxGeometry width="30" height="30" as="geometry">
            <mxRectangle width="30" height="30" as="alternateBounds" />
          </mxGeometry>
        </mxCell>
        <mxCell id="7FymyZqYQRA0W6Gg-ok5-164" value="作成日" style="shape=partialRectangle;connectable=0;fillColor=none;top=0;left=0;bottom=0;right=0;align=left;spacingLeft=6;overflow=hidden;whiteSpace=wrap;html=1;" vertex="1" parent="7FymyZqYQRA0W6Gg-ok5-162">
          <mxGeometry x="30" width="150" height="30" as="geometry">
            <mxRectangle width="150" height="30" as="alternateBounds" />
          </mxGeometry>
        </mxCell>
        <mxCell id="7FymyZqYQRA0W6Gg-ok5-166" value="" style="shape=tableRow;horizontal=0;startSize=0;swimlaneHead=0;swimlaneBody=0;fillColor=none;collapsible=0;dropTarget=0;points=[[0,0.5],[1,0.5]];portConstraint=eastwest;top=0;left=0;right=0;bottom=0;" vertex="1" parent="7FymyZqYQRA0W6Gg-ok5-48">
          <mxGeometry y="210" width="180" height="30" as="geometry" />
        </mxCell>
        <mxCell id="7FymyZqYQRA0W6Gg-ok5-167" value="" style="shape=partialRectangle;connectable=0;fillColor=none;top=0;left=0;bottom=0;right=0;editable=1;overflow=hidden;whiteSpace=wrap;html=1;" vertex="1" parent="7FymyZqYQRA0W6Gg-ok5-166">
          <mxGeometry width="30" height="30" as="geometry">
            <mxRectangle width="30" height="30" as="alternateBounds" />
          </mxGeometry>
        </mxCell>
        <mxCell id="7FymyZqYQRA0W6Gg-ok5-168" value="更新日" style="shape=partialRectangle;connectable=0;fillColor=none;top=0;left=0;bottom=0;right=0;align=left;spacingLeft=6;overflow=hidden;whiteSpace=wrap;html=1;" vertex="1" parent="7FymyZqYQRA0W6Gg-ok5-166">
          <mxGeometry x="30" width="150" height="30" as="geometry">
            <mxRectangle width="150" height="30" as="alternateBounds" />
          </mxGeometry>
        </mxCell>
        <mxCell id="7FymyZqYQRA0W6Gg-ok5-61" value="コーチ" style="shape=table;startSize=30;container=1;collapsible=1;childLayout=tableLayout;fixedRows=1;rowLines=0;fontStyle=1;align=center;resizeLast=1;html=1;" vertex="1" parent="1">
          <mxGeometry x="-10" y="380" width="180" height="150" as="geometry" />
        </mxCell>
        <mxCell id="7FymyZqYQRA0W6Gg-ok5-62" value="" style="shape=tableRow;horizontal=0;startSize=0;swimlaneHead=0;swimlaneBody=0;fillColor=none;collapsible=0;dropTarget=0;points=[[0,0.5],[1,0.5]];portConstraint=eastwest;top=0;left=0;right=0;bottom=1;" vertex="1" parent="7FymyZqYQRA0W6Gg-ok5-61">
          <mxGeometry y="30" width="180" height="30" as="geometry" />
        </mxCell>
        <mxCell id="7FymyZqYQRA0W6Gg-ok5-63" value="PK" style="shape=partialRectangle;connectable=0;fillColor=none;top=0;left=0;bottom=0;right=0;fontStyle=1;overflow=hidden;whiteSpace=wrap;html=1;" vertex="1" parent="7FymyZqYQRA0W6Gg-ok5-62">
          <mxGeometry width="30" height="30" as="geometry">
            <mxRectangle width="30" height="30" as="alternateBounds" />
          </mxGeometry>
        </mxCell>
        <mxCell id="7FymyZqYQRA0W6Gg-ok5-64" value="id" style="shape=partialRectangle;connectable=0;fillColor=none;top=0;left=0;bottom=0;right=0;align=left;spacingLeft=6;fontStyle=5;overflow=hidden;whiteSpace=wrap;html=1;" vertex="1" parent="7FymyZqYQRA0W6Gg-ok5-62">
          <mxGeometry x="30" width="150" height="30" as="geometry">
            <mxRectangle width="150" height="30" as="alternateBounds" />
          </mxGeometry>
        </mxCell>
        <mxCell id="7FymyZqYQRA0W6Gg-ok5-65" value="" style="shape=tableRow;horizontal=0;startSize=0;swimlaneHead=0;swimlaneBody=0;fillColor=none;collapsible=0;dropTarget=0;points=[[0,0.5],[1,0.5]];portConstraint=eastwest;top=0;left=0;right=0;bottom=0;" vertex="1" parent="7FymyZqYQRA0W6Gg-ok5-61">
          <mxGeometry y="60" width="180" height="30" as="geometry" />
        </mxCell>
        <mxCell id="7FymyZqYQRA0W6Gg-ok5-66" value="" style="shape=partialRectangle;connectable=0;fillColor=none;top=0;left=0;bottom=0;right=0;editable=1;overflow=hidden;whiteSpace=wrap;html=1;" vertex="1" parent="7FymyZqYQRA0W6Gg-ok5-65">
          <mxGeometry width="30" height="30" as="geometry">
            <mxRectangle width="30" height="30" as="alternateBounds" />
          </mxGeometry>
        </mxCell>
        <mxCell id="7FymyZqYQRA0W6Gg-ok5-67" value="Row 1" style="shape=partialRectangle;connectable=0;fillColor=none;top=0;left=0;bottom=0;right=0;align=left;spacingLeft=6;overflow=hidden;whiteSpace=wrap;html=1;" vertex="1" parent="7FymyZqYQRA0W6Gg-ok5-65">
          <mxGeometry x="30" width="150" height="30" as="geometry">
            <mxRectangle width="150" height="30" as="alternateBounds" />
          </mxGeometry>
        </mxCell>
        <mxCell id="7FymyZqYQRA0W6Gg-ok5-68" value="" style="shape=tableRow;horizontal=0;startSize=0;swimlaneHead=0;swimlaneBody=0;fillColor=none;collapsible=0;dropTarget=0;points=[[0,0.5],[1,0.5]];portConstraint=eastwest;top=0;left=0;right=0;bottom=0;" vertex="1" parent="7FymyZqYQRA0W6Gg-ok5-61">
          <mxGeometry y="90" width="180" height="30" as="geometry" />
        </mxCell>
        <mxCell id="7FymyZqYQRA0W6Gg-ok5-69" value="" style="shape=partialRectangle;connectable=0;fillColor=none;top=0;left=0;bottom=0;right=0;editable=1;overflow=hidden;whiteSpace=wrap;html=1;" vertex="1" parent="7FymyZqYQRA0W6Gg-ok5-68">
          <mxGeometry width="30" height="30" as="geometry">
            <mxRectangle width="30" height="30" as="alternateBounds" />
          </mxGeometry>
        </mxCell>
        <mxCell id="7FymyZqYQRA0W6Gg-ok5-70" value="作成日" style="shape=partialRectangle;connectable=0;fillColor=none;top=0;left=0;bottom=0;right=0;align=left;spacingLeft=6;overflow=hidden;whiteSpace=wrap;html=1;" vertex="1" parent="7FymyZqYQRA0W6Gg-ok5-68">
          <mxGeometry x="30" width="150" height="30" as="geometry">
            <mxRectangle width="150" height="30" as="alternateBounds" />
          </mxGeometry>
        </mxCell>
        <mxCell id="7FymyZqYQRA0W6Gg-ok5-71" value="" style="shape=tableRow;horizontal=0;startSize=0;swimlaneHead=0;swimlaneBody=0;fillColor=none;collapsible=0;dropTarget=0;points=[[0,0.5],[1,0.5]];portConstraint=eastwest;top=0;left=0;right=0;bottom=0;" vertex="1" parent="7FymyZqYQRA0W6Gg-ok5-61">
          <mxGeometry y="120" width="180" height="30" as="geometry" />
        </mxCell>
        <mxCell id="7FymyZqYQRA0W6Gg-ok5-72" value="" style="shape=partialRectangle;connectable=0;fillColor=none;top=0;left=0;bottom=0;right=0;editable=1;overflow=hidden;whiteSpace=wrap;html=1;" vertex="1" parent="7FymyZqYQRA0W6Gg-ok5-71">
          <mxGeometry width="30" height="30" as="geometry">
            <mxRectangle width="30" height="30" as="alternateBounds" />
          </mxGeometry>
        </mxCell>
        <mxCell id="7FymyZqYQRA0W6Gg-ok5-73" value="更新日" style="shape=partialRectangle;connectable=0;fillColor=none;top=0;left=0;bottom=0;right=0;align=left;spacingLeft=6;overflow=hidden;whiteSpace=wrap;html=1;" vertex="1" parent="7FymyZqYQRA0W6Gg-ok5-71">
          <mxGeometry x="30" width="150" height="30" as="geometry">
            <mxRectangle width="150" height="30" as="alternateBounds" />
          </mxGeometry>
        </mxCell>
        <mxCell id="7FymyZqYQRA0W6Gg-ok5-87" value="投稿" style="shape=table;startSize=30;container=1;collapsible=1;childLayout=tableLayout;fixedRows=1;rowLines=0;fontStyle=1;align=center;resizeLast=1;html=1;" vertex="1" parent="1">
          <mxGeometry x="630" y="40" width="180" height="270" as="geometry" />
        </mxCell>
        <mxCell id="7FymyZqYQRA0W6Gg-ok5-88" value="" style="shape=tableRow;horizontal=0;startSize=0;swimlaneHead=0;swimlaneBody=0;fillColor=none;collapsible=0;dropTarget=0;points=[[0,0.5],[1,0.5]];portConstraint=eastwest;top=0;left=0;right=0;bottom=1;" vertex="1" parent="7FymyZqYQRA0W6Gg-ok5-87">
          <mxGeometry y="30" width="180" height="30" as="geometry" />
        </mxCell>
        <mxCell id="7FymyZqYQRA0W6Gg-ok5-89" value="PK" style="shape=partialRectangle;connectable=0;fillColor=none;top=0;left=0;bottom=0;right=0;fontStyle=1;overflow=hidden;whiteSpace=wrap;html=1;" vertex="1" parent="7FymyZqYQRA0W6Gg-ok5-88">
          <mxGeometry width="30" height="30" as="geometry">
            <mxRectangle width="30" height="30" as="alternateBounds" />
          </mxGeometry>
        </mxCell>
        <mxCell id="7FymyZqYQRA0W6Gg-ok5-90" value="id" style="shape=partialRectangle;connectable=0;fillColor=none;top=0;left=0;bottom=0;right=0;align=left;spacingLeft=6;fontStyle=5;overflow=hidden;whiteSpace=wrap;html=1;" vertex="1" parent="7FymyZqYQRA0W6Gg-ok5-88">
          <mxGeometry x="30" width="150" height="30" as="geometry">
            <mxRectangle width="150" height="30" as="alternateBounds" />
          </mxGeometry>
        </mxCell>
        <mxCell id="7FymyZqYQRA0W6Gg-ok5-91" value="" style="shape=tableRow;horizontal=0;startSize=0;swimlaneHead=0;swimlaneBody=0;fillColor=none;collapsible=0;dropTarget=0;points=[[0,0.5],[1,0.5]];portConstraint=eastwest;top=0;left=0;right=0;bottom=0;" vertex="1" parent="7FymyZqYQRA0W6Gg-ok5-87">
          <mxGeometry y="60" width="180" height="30" as="geometry" />
        </mxCell>
        <mxCell id="7FymyZqYQRA0W6Gg-ok5-92" value="" style="shape=partialRectangle;connectable=0;fillColor=none;top=0;left=0;bottom=0;right=0;editable=1;overflow=hidden;whiteSpace=wrap;html=1;" vertex="1" parent="7FymyZqYQRA0W6Gg-ok5-91">
          <mxGeometry width="30" height="30" as="geometry">
            <mxRectangle width="30" height="30" as="alternateBounds" />
          </mxGeometry>
        </mxCell>
        <mxCell id="7FymyZqYQRA0W6Gg-ok5-93" value="日時" style="shape=partialRectangle;connectable=0;fillColor=none;top=0;left=0;bottom=0;right=0;align=left;spacingLeft=6;overflow=hidden;whiteSpace=wrap;html=1;" vertex="1" parent="7FymyZqYQRA0W6Gg-ok5-91">
          <mxGeometry x="30" width="150" height="30" as="geometry">
            <mxRectangle width="150" height="30" as="alternateBounds" />
          </mxGeometry>
        </mxCell>
        <mxCell id="7FymyZqYQRA0W6Gg-ok5-94" value="" style="shape=tableRow;horizontal=0;startSize=0;swimlaneHead=0;swimlaneBody=0;fillColor=none;collapsible=0;dropTarget=0;points=[[0,0.5],[1,0.5]];portConstraint=eastwest;top=0;left=0;right=0;bottom=0;" vertex="1" parent="7FymyZqYQRA0W6Gg-ok5-87">
          <mxGeometry y="90" width="180" height="30" as="geometry" />
        </mxCell>
        <mxCell id="7FymyZqYQRA0W6Gg-ok5-95" value="" style="shape=partialRectangle;connectable=0;fillColor=none;top=0;left=0;bottom=0;right=0;editable=1;overflow=hidden;whiteSpace=wrap;html=1;" vertex="1" parent="7FymyZqYQRA0W6Gg-ok5-94">
          <mxGeometry width="30" height="30" as="geometry">
            <mxRectangle width="30" height="30" as="alternateBounds" />
          </mxGeometry>
        </mxCell>
        <mxCell id="7FymyZqYQRA0W6Gg-ok5-96" value="朝食" style="shape=partialRectangle;connectable=0;fillColor=none;top=0;left=0;bottom=0;right=0;align=left;spacingLeft=6;overflow=hidden;whiteSpace=wrap;html=1;" vertex="1" parent="7FymyZqYQRA0W6Gg-ok5-94">
          <mxGeometry x="30" width="150" height="30" as="geometry">
            <mxRectangle width="150" height="30" as="alternateBounds" />
          </mxGeometry>
        </mxCell>
        <mxCell id="7FymyZqYQRA0W6Gg-ok5-97" value="" style="shape=tableRow;horizontal=0;startSize=0;swimlaneHead=0;swimlaneBody=0;fillColor=none;collapsible=0;dropTarget=0;points=[[0,0.5],[1,0.5]];portConstraint=eastwest;top=0;left=0;right=0;bottom=0;" vertex="1" parent="7FymyZqYQRA0W6Gg-ok5-87">
          <mxGeometry y="120" width="180" height="30" as="geometry" />
        </mxCell>
        <mxCell id="7FymyZqYQRA0W6Gg-ok5-98" value="" style="shape=partialRectangle;connectable=0;fillColor=none;top=0;left=0;bottom=0;right=0;editable=1;overflow=hidden;whiteSpace=wrap;html=1;" vertex="1" parent="7FymyZqYQRA0W6Gg-ok5-97">
          <mxGeometry width="30" height="30" as="geometry">
            <mxRectangle width="30" height="30" as="alternateBounds" />
          </mxGeometry>
        </mxCell>
        <mxCell id="7FymyZqYQRA0W6Gg-ok5-99" value="昼食" style="shape=partialRectangle;connectable=0;fillColor=none;top=0;left=0;bottom=0;right=0;align=left;spacingLeft=6;overflow=hidden;whiteSpace=wrap;html=1;" vertex="1" parent="7FymyZqYQRA0W6Gg-ok5-97">
          <mxGeometry x="30" width="150" height="30" as="geometry">
            <mxRectangle width="150" height="30" as="alternateBounds" />
          </mxGeometry>
        </mxCell>
        <mxCell id="7FymyZqYQRA0W6Gg-ok5-131" value="" style="shape=tableRow;horizontal=0;startSize=0;swimlaneHead=0;swimlaneBody=0;fillColor=none;collapsible=0;dropTarget=0;points=[[0,0.5],[1,0.5]];portConstraint=eastwest;top=0;left=0;right=0;bottom=0;" vertex="1" parent="7FymyZqYQRA0W6Gg-ok5-87">
          <mxGeometry y="150" width="180" height="30" as="geometry" />
        </mxCell>
        <mxCell id="7FymyZqYQRA0W6Gg-ok5-132" value="" style="shape=partialRectangle;connectable=0;fillColor=none;top=0;left=0;bottom=0;right=0;editable=1;overflow=hidden;whiteSpace=wrap;html=1;" vertex="1" parent="7FymyZqYQRA0W6Gg-ok5-131">
          <mxGeometry width="30" height="30" as="geometry">
            <mxRectangle width="30" height="30" as="alternateBounds" />
          </mxGeometry>
        </mxCell>
        <mxCell id="7FymyZqYQRA0W6Gg-ok5-133" value="夕食" style="shape=partialRectangle;connectable=0;fillColor=none;top=0;left=0;bottom=0;right=0;align=left;spacingLeft=6;overflow=hidden;whiteSpace=wrap;html=1;" vertex="1" parent="7FymyZqYQRA0W6Gg-ok5-131">
          <mxGeometry x="30" width="150" height="30" as="geometry">
            <mxRectangle width="150" height="30" as="alternateBounds" />
          </mxGeometry>
        </mxCell>
        <mxCell id="7FymyZqYQRA0W6Gg-ok5-150" value="" style="shape=tableRow;horizontal=0;startSize=0;swimlaneHead=0;swimlaneBody=0;fillColor=none;collapsible=0;dropTarget=0;points=[[0,0.5],[1,0.5]];portConstraint=eastwest;top=0;left=0;right=0;bottom=0;" vertex="1" parent="7FymyZqYQRA0W6Gg-ok5-87">
          <mxGeometry y="180" width="180" height="30" as="geometry" />
        </mxCell>
        <mxCell id="7FymyZqYQRA0W6Gg-ok5-151" value="" style="shape=partialRectangle;connectable=0;fillColor=none;top=0;left=0;bottom=0;right=0;editable=1;overflow=hidden;whiteSpace=wrap;html=1;" vertex="1" parent="7FymyZqYQRA0W6Gg-ok5-150">
          <mxGeometry width="30" height="30" as="geometry">
            <mxRectangle width="30" height="30" as="alternateBounds" />
          </mxGeometry>
        </mxCell>
        <mxCell id="7FymyZqYQRA0W6Gg-ok5-152" value="食事内容" style="shape=partialRectangle;connectable=0;fillColor=none;top=0;left=0;bottom=0;right=0;align=left;spacingLeft=6;overflow=hidden;whiteSpace=wrap;html=1;" vertex="1" parent="7FymyZqYQRA0W6Gg-ok5-150">
          <mxGeometry x="30" width="150" height="30" as="geometry">
            <mxRectangle width="150" height="30" as="alternateBounds" />
          </mxGeometry>
        </mxCell>
        <mxCell id="7FymyZqYQRA0W6Gg-ok5-153" value="" style="shape=tableRow;horizontal=0;startSize=0;swimlaneHead=0;swimlaneBody=0;fillColor=none;collapsible=0;dropTarget=0;points=[[0,0.5],[1,0.5]];portConstraint=eastwest;top=0;left=0;right=0;bottom=0;" vertex="1" parent="7FymyZqYQRA0W6Gg-ok5-87">
          <mxGeometry y="210" width="180" height="30" as="geometry" />
        </mxCell>
        <mxCell id="7FymyZqYQRA0W6Gg-ok5-154" value="" style="shape=partialRectangle;connectable=0;fillColor=none;top=0;left=0;bottom=0;right=0;editable=1;overflow=hidden;whiteSpace=wrap;html=1;" vertex="1" parent="7FymyZqYQRA0W6Gg-ok5-153">
          <mxGeometry width="30" height="30" as="geometry">
            <mxRectangle width="30" height="30" as="alternateBounds" />
          </mxGeometry>
        </mxCell>
        <mxCell id="7FymyZqYQRA0W6Gg-ok5-155" value="作成日" style="shape=partialRectangle;connectable=0;fillColor=none;top=0;left=0;bottom=0;right=0;align=left;spacingLeft=6;overflow=hidden;whiteSpace=wrap;html=1;" vertex="1" parent="7FymyZqYQRA0W6Gg-ok5-153">
          <mxGeometry x="30" width="150" height="30" as="geometry">
            <mxRectangle width="150" height="30" as="alternateBounds" />
          </mxGeometry>
        </mxCell>
        <mxCell id="7FymyZqYQRA0W6Gg-ok5-156" value="" style="shape=tableRow;horizontal=0;startSize=0;swimlaneHead=0;swimlaneBody=0;fillColor=none;collapsible=0;dropTarget=0;points=[[0,0.5],[1,0.5]];portConstraint=eastwest;top=0;left=0;right=0;bottom=0;" vertex="1" parent="7FymyZqYQRA0W6Gg-ok5-87">
          <mxGeometry y="240" width="180" height="30" as="geometry" />
        </mxCell>
        <mxCell id="7FymyZqYQRA0W6Gg-ok5-157" value="" style="shape=partialRectangle;connectable=0;fillColor=none;top=0;left=0;bottom=0;right=0;editable=1;overflow=hidden;whiteSpace=wrap;html=1;" vertex="1" parent="7FymyZqYQRA0W6Gg-ok5-156">
          <mxGeometry width="30" height="30" as="geometry">
            <mxRectangle width="30" height="30" as="alternateBounds" />
          </mxGeometry>
        </mxCell>
        <mxCell id="7FymyZqYQRA0W6Gg-ok5-158" value="更新日" style="shape=partialRectangle;connectable=0;fillColor=none;top=0;left=0;bottom=0;right=0;align=left;spacingLeft=6;overflow=hidden;whiteSpace=wrap;html=1;" vertex="1" parent="7FymyZqYQRA0W6Gg-ok5-156">
          <mxGeometry x="30" width="150" height="30" as="geometry">
            <mxRectangle width="150" height="30" as="alternateBounds" />
          </mxGeometry>
        </mxCell>
        <mxCell id="7FymyZqYQRA0W6Gg-ok5-100" value="課題（Todoリスト）" style="shape=table;startSize=30;container=1;collapsible=1;childLayout=tableLayout;fixedRows=1;rowLines=0;fontStyle=1;align=center;resizeLast=1;html=1;" vertex="1" parent="1">
          <mxGeometry x="660" y="345" width="180" height="150" as="geometry" />
        </mxCell>
        <mxCell id="7FymyZqYQRA0W6Gg-ok5-101" value="" style="shape=tableRow;horizontal=0;startSize=0;swimlaneHead=0;swimlaneBody=0;fillColor=none;collapsible=0;dropTarget=0;points=[[0,0.5],[1,0.5]];portConstraint=eastwest;top=0;left=0;right=0;bottom=1;" vertex="1" parent="7FymyZqYQRA0W6Gg-ok5-100">
          <mxGeometry y="30" width="180" height="30" as="geometry" />
        </mxCell>
        <mxCell id="7FymyZqYQRA0W6Gg-ok5-102" value="PK" style="shape=partialRectangle;connectable=0;fillColor=none;top=0;left=0;bottom=0;right=0;fontStyle=1;overflow=hidden;whiteSpace=wrap;html=1;" vertex="1" parent="7FymyZqYQRA0W6Gg-ok5-101">
          <mxGeometry width="30" height="30" as="geometry">
            <mxRectangle width="30" height="30" as="alternateBounds" />
          </mxGeometry>
        </mxCell>
        <mxCell id="7FymyZqYQRA0W6Gg-ok5-103" value="id" style="shape=partialRectangle;connectable=0;fillColor=none;top=0;left=0;bottom=0;right=0;align=left;spacingLeft=6;fontStyle=5;overflow=hidden;whiteSpace=wrap;html=1;" vertex="1" parent="7FymyZqYQRA0W6Gg-ok5-101">
          <mxGeometry x="30" width="150" height="30" as="geometry">
            <mxRectangle width="150" height="30" as="alternateBounds" />
          </mxGeometry>
        </mxCell>
        <mxCell id="7FymyZqYQRA0W6Gg-ok5-104" value="" style="shape=tableRow;horizontal=0;startSize=0;swimlaneHead=0;swimlaneBody=0;fillColor=none;collapsible=0;dropTarget=0;points=[[0,0.5],[1,0.5]];portConstraint=eastwest;top=0;left=0;right=0;bottom=0;" vertex="1" parent="7FymyZqYQRA0W6Gg-ok5-100">
          <mxGeometry y="60" width="180" height="30" as="geometry" />
        </mxCell>
        <mxCell id="7FymyZqYQRA0W6Gg-ok5-105" value="" style="shape=partialRectangle;connectable=0;fillColor=none;top=0;left=0;bottom=0;right=0;editable=1;overflow=hidden;whiteSpace=wrap;html=1;" vertex="1" parent="7FymyZqYQRA0W6Gg-ok5-104">
          <mxGeometry width="30" height="30" as="geometry">
            <mxRectangle width="30" height="30" as="alternateBounds" />
          </mxGeometry>
        </mxCell>
        <mxCell id="7FymyZqYQRA0W6Gg-ok5-106" value="Row 1" style="shape=partialRectangle;connectable=0;fillColor=none;top=0;left=0;bottom=0;right=0;align=left;spacingLeft=6;overflow=hidden;whiteSpace=wrap;html=1;" vertex="1" parent="7FymyZqYQRA0W6Gg-ok5-104">
          <mxGeometry x="30" width="150" height="30" as="geometry">
            <mxRectangle width="150" height="30" as="alternateBounds" />
          </mxGeometry>
        </mxCell>
        <mxCell id="7FymyZqYQRA0W6Gg-ok5-107" value="" style="shape=tableRow;horizontal=0;startSize=0;swimlaneHead=0;swimlaneBody=0;fillColor=none;collapsible=0;dropTarget=0;points=[[0,0.5],[1,0.5]];portConstraint=eastwest;top=0;left=0;right=0;bottom=0;" vertex="1" parent="7FymyZqYQRA0W6Gg-ok5-100">
          <mxGeometry y="90" width="180" height="30" as="geometry" />
        </mxCell>
        <mxCell id="7FymyZqYQRA0W6Gg-ok5-108" value="" style="shape=partialRectangle;connectable=0;fillColor=none;top=0;left=0;bottom=0;right=0;editable=1;overflow=hidden;whiteSpace=wrap;html=1;" vertex="1" parent="7FymyZqYQRA0W6Gg-ok5-107">
          <mxGeometry width="30" height="30" as="geometry">
            <mxRectangle width="30" height="30" as="alternateBounds" />
          </mxGeometry>
        </mxCell>
        <mxCell id="7FymyZqYQRA0W6Gg-ok5-109" value="作成日" style="shape=partialRectangle;connectable=0;fillColor=none;top=0;left=0;bottom=0;right=0;align=left;spacingLeft=6;overflow=hidden;whiteSpace=wrap;html=1;" vertex="1" parent="7FymyZqYQRA0W6Gg-ok5-107">
          <mxGeometry x="30" width="150" height="30" as="geometry">
            <mxRectangle width="150" height="30" as="alternateBounds" />
          </mxGeometry>
        </mxCell>
        <mxCell id="7FymyZqYQRA0W6Gg-ok5-110" value="" style="shape=tableRow;horizontal=0;startSize=0;swimlaneHead=0;swimlaneBody=0;fillColor=none;collapsible=0;dropTarget=0;points=[[0,0.5],[1,0.5]];portConstraint=eastwest;top=0;left=0;right=0;bottom=0;" vertex="1" parent="7FymyZqYQRA0W6Gg-ok5-100">
          <mxGeometry y="120" width="180" height="30" as="geometry" />
        </mxCell>
        <mxCell id="7FymyZqYQRA0W6Gg-ok5-111" value="" style="shape=partialRectangle;connectable=0;fillColor=none;top=0;left=0;bottom=0;right=0;editable=1;overflow=hidden;whiteSpace=wrap;html=1;" vertex="1" parent="7FymyZqYQRA0W6Gg-ok5-110">
          <mxGeometry width="30" height="30" as="geometry">
            <mxRectangle width="30" height="30" as="alternateBounds" />
          </mxGeometry>
        </mxCell>
        <mxCell id="7FymyZqYQRA0W6Gg-ok5-112" value="更新日" style="shape=partialRectangle;connectable=0;fillColor=none;top=0;left=0;bottom=0;right=0;align=left;spacingLeft=6;overflow=hidden;whiteSpace=wrap;html=1;" vertex="1" parent="7FymyZqYQRA0W6Gg-ok5-110">
          <mxGeometry x="30" width="150" height="30" as="geometry">
            <mxRectangle width="150" height="30" as="alternateBounds" />
          </mxGeometry>
        </mxCell>
        <mxCell id="7FymyZqYQRA0W6Gg-ok5-113" value="コメント" style="shape=table;startSize=30;container=1;collapsible=1;childLayout=tableLayout;fixedRows=1;rowLines=0;fontStyle=1;align=center;resizeLast=1;html=1;" vertex="1" parent="1">
          <mxGeometry x="660" y="600" width="180" height="150" as="geometry" />
        </mxCell>
        <mxCell id="7FymyZqYQRA0W6Gg-ok5-114" value="" style="shape=tableRow;horizontal=0;startSize=0;swimlaneHead=0;swimlaneBody=0;fillColor=none;collapsible=0;dropTarget=0;points=[[0,0.5],[1,0.5]];portConstraint=eastwest;top=0;left=0;right=0;bottom=1;" vertex="1" parent="7FymyZqYQRA0W6Gg-ok5-113">
          <mxGeometry y="30" width="180" height="30" as="geometry" />
        </mxCell>
        <mxCell id="7FymyZqYQRA0W6Gg-ok5-115" value="PK" style="shape=partialRectangle;connectable=0;fillColor=none;top=0;left=0;bottom=0;right=0;fontStyle=1;overflow=hidden;whiteSpace=wrap;html=1;" vertex="1" parent="7FymyZqYQRA0W6Gg-ok5-114">
          <mxGeometry width="30" height="30" as="geometry">
            <mxRectangle width="30" height="30" as="alternateBounds" />
          </mxGeometry>
        </mxCell>
        <mxCell id="7FymyZqYQRA0W6Gg-ok5-116" value="id" style="shape=partialRectangle;connectable=0;fillColor=none;top=0;left=0;bottom=0;right=0;align=left;spacingLeft=6;fontStyle=5;overflow=hidden;whiteSpace=wrap;html=1;" vertex="1" parent="7FymyZqYQRA0W6Gg-ok5-114">
          <mxGeometry x="30" width="150" height="30" as="geometry">
            <mxRectangle width="150" height="30" as="alternateBounds" />
          </mxGeometry>
        </mxCell>
        <mxCell id="7FymyZqYQRA0W6Gg-ok5-117" value="" style="shape=tableRow;horizontal=0;startSize=0;swimlaneHead=0;swimlaneBody=0;fillColor=none;collapsible=0;dropTarget=0;points=[[0,0.5],[1,0.5]];portConstraint=eastwest;top=0;left=0;right=0;bottom=0;" vertex="1" parent="7FymyZqYQRA0W6Gg-ok5-113">
          <mxGeometry y="60" width="180" height="30" as="geometry" />
        </mxCell>
        <mxCell id="7FymyZqYQRA0W6Gg-ok5-118" value="" style="shape=partialRectangle;connectable=0;fillColor=none;top=0;left=0;bottom=0;right=0;editable=1;overflow=hidden;whiteSpace=wrap;html=1;" vertex="1" parent="7FymyZqYQRA0W6Gg-ok5-117">
          <mxGeometry width="30" height="30" as="geometry">
            <mxRectangle width="30" height="30" as="alternateBounds" />
          </mxGeometry>
        </mxCell>
        <mxCell id="7FymyZqYQRA0W6Gg-ok5-119" value="Row 1" style="shape=partialRectangle;connectable=0;fillColor=none;top=0;left=0;bottom=0;right=0;align=left;spacingLeft=6;overflow=hidden;whiteSpace=wrap;html=1;" vertex="1" parent="7FymyZqYQRA0W6Gg-ok5-117">
          <mxGeometry x="30" width="150" height="30" as="geometry">
            <mxRectangle width="150" height="30" as="alternateBounds" />
          </mxGeometry>
        </mxCell>
        <mxCell id="7FymyZqYQRA0W6Gg-ok5-120" value="" style="shape=tableRow;horizontal=0;startSize=0;swimlaneHead=0;swimlaneBody=0;fillColor=none;collapsible=0;dropTarget=0;points=[[0,0.5],[1,0.5]];portConstraint=eastwest;top=0;left=0;right=0;bottom=0;" vertex="1" parent="7FymyZqYQRA0W6Gg-ok5-113">
          <mxGeometry y="90" width="180" height="30" as="geometry" />
        </mxCell>
        <mxCell id="7FymyZqYQRA0W6Gg-ok5-121" value="" style="shape=partialRectangle;connectable=0;fillColor=none;top=0;left=0;bottom=0;right=0;editable=1;overflow=hidden;whiteSpace=wrap;html=1;" vertex="1" parent="7FymyZqYQRA0W6Gg-ok5-120">
          <mxGeometry width="30" height="30" as="geometry">
            <mxRectangle width="30" height="30" as="alternateBounds" />
          </mxGeometry>
        </mxCell>
        <mxCell id="7FymyZqYQRA0W6Gg-ok5-122" value="作成日" style="shape=partialRectangle;connectable=0;fillColor=none;top=0;left=0;bottom=0;right=0;align=left;spacingLeft=6;overflow=hidden;whiteSpace=wrap;html=1;" vertex="1" parent="7FymyZqYQRA0W6Gg-ok5-120">
          <mxGeometry x="30" width="150" height="30" as="geometry">
            <mxRectangle width="150" height="30" as="alternateBounds" />
          </mxGeometry>
        </mxCell>
        <mxCell id="7FymyZqYQRA0W6Gg-ok5-123" value="" style="shape=tableRow;horizontal=0;startSize=0;swimlaneHead=0;swimlaneBody=0;fillColor=none;collapsible=0;dropTarget=0;points=[[0,0.5],[1,0.5]];portConstraint=eastwest;top=0;left=0;right=0;bottom=0;" vertex="1" parent="7FymyZqYQRA0W6Gg-ok5-113">
          <mxGeometry y="120" width="180" height="30" as="geometry" />
        </mxCell>
        <mxCell id="7FymyZqYQRA0W6Gg-ok5-124" value="" style="shape=partialRectangle;connectable=0;fillColor=none;top=0;left=0;bottom=0;right=0;editable=1;overflow=hidden;whiteSpace=wrap;html=1;" vertex="1" parent="7FymyZqYQRA0W6Gg-ok5-123">
          <mxGeometry width="30" height="30" as="geometry">
            <mxRectangle width="30" height="30" as="alternateBounds" />
          </mxGeometry>
        </mxCell>
        <mxCell id="7FymyZqYQRA0W6Gg-ok5-125" value="更新日" style="shape=partialRectangle;connectable=0;fillColor=none;top=0;left=0;bottom=0;right=0;align=left;spacingLeft=6;overflow=hidden;whiteSpace=wrap;html=1;" vertex="1" parent="7FymyZqYQRA0W6Gg-ok5-123">
          <mxGeometry x="30" width="150" height="30" as="geometry">
            <mxRectangle width="150" height="30" as="alternateBounds" />
          </mxGeometry>
        </mxCell>
        <mxCell id="7FymyZqYQRA0W6Gg-ok5-130" value="" style="edgeStyle=entityRelationEdgeStyle;fontSize=12;html=1;endArrow=ERoneToMany;startArrow=ERoneToMany;rounded=0;entryX=0;entryY=0.5;entryDx=0;entryDy=0;exitX=0.994;exitY=0.933;exitDx=0;exitDy=0;exitPerimeter=0;" edge="1" parent="1" source="7FymyZqYQRA0W6Gg-ok5-49">
          <mxGeometry width="100" height="100" relative="1" as="geometry">
            <mxPoint x="200" y="140" as="sourcePoint" />
            <mxPoint x="240" y="685" as="targetPoint" />
          </mxGeometry>
        </mxCell>
        <mxCell id="7FymyZqYQRA0W6Gg-ok5-170" value="栄養士" style="shape=table;startSize=30;container=1;collapsible=1;childLayout=tableLayout;fixedRows=1;rowLines=0;fontStyle=1;align=center;resizeLast=1;html=1;" vertex="1" parent="1">
          <mxGeometry x="240" y="630" width="180" height="240" as="geometry" />
        </mxCell>
        <mxCell id="7FymyZqYQRA0W6Gg-ok5-171" value="" style="shape=tableRow;horizontal=0;startSize=0;swimlaneHead=0;swimlaneBody=0;fillColor=none;collapsible=0;dropTarget=0;points=[[0,0.5],[1,0.5]];portConstraint=eastwest;top=0;left=0;right=0;bottom=1;" vertex="1" parent="7FymyZqYQRA0W6Gg-ok5-170">
          <mxGeometry y="30" width="180" height="30" as="geometry" />
        </mxCell>
        <mxCell id="7FymyZqYQRA0W6Gg-ok5-172" value="PK" style="shape=partialRectangle;connectable=0;fillColor=none;top=0;left=0;bottom=0;right=0;fontStyle=1;overflow=hidden;whiteSpace=wrap;html=1;" vertex="1" parent="7FymyZqYQRA0W6Gg-ok5-171">
          <mxGeometry width="30" height="30" as="geometry">
            <mxRectangle width="30" height="30" as="alternateBounds" />
          </mxGeometry>
        </mxCell>
        <mxCell id="7FymyZqYQRA0W6Gg-ok5-173" value="id" style="shape=partialRectangle;connectable=0;fillColor=none;top=0;left=0;bottom=0;right=0;align=left;spacingLeft=6;fontStyle=5;overflow=hidden;whiteSpace=wrap;html=1;" vertex="1" parent="7FymyZqYQRA0W6Gg-ok5-171">
          <mxGeometry x="30" width="150" height="30" as="geometry">
            <mxRectangle width="150" height="30" as="alternateBounds" />
          </mxGeometry>
        </mxCell>
        <mxCell id="7FymyZqYQRA0W6Gg-ok5-174" value="" style="shape=tableRow;horizontal=0;startSize=0;swimlaneHead=0;swimlaneBody=0;fillColor=none;collapsible=0;dropTarget=0;points=[[0,0.5],[1,0.5]];portConstraint=eastwest;top=0;left=0;right=0;bottom=0;" vertex="1" parent="7FymyZqYQRA0W6Gg-ok5-170">
          <mxGeometry y="60" width="180" height="30" as="geometry" />
        </mxCell>
        <mxCell id="7FymyZqYQRA0W6Gg-ok5-175" value="" style="shape=partialRectangle;connectable=0;fillColor=none;top=0;left=0;bottom=0;right=0;editable=1;overflow=hidden;whiteSpace=wrap;html=1;" vertex="1" parent="7FymyZqYQRA0W6Gg-ok5-174">
          <mxGeometry width="30" height="30" as="geometry">
            <mxRectangle width="30" height="30" as="alternateBounds" />
          </mxGeometry>
        </mxCell>
        <mxCell id="7FymyZqYQRA0W6Gg-ok5-176" value="姓" style="shape=partialRectangle;connectable=0;fillColor=none;top=0;left=0;bottom=0;right=0;align=left;spacingLeft=6;overflow=hidden;whiteSpace=wrap;html=1;" vertex="1" parent="7FymyZqYQRA0W6Gg-ok5-174">
          <mxGeometry x="30" width="150" height="30" as="geometry">
            <mxRectangle width="150" height="30" as="alternateBounds" />
          </mxGeometry>
        </mxCell>
        <mxCell id="7FymyZqYQRA0W6Gg-ok5-177" value="" style="shape=tableRow;horizontal=0;startSize=0;swimlaneHead=0;swimlaneBody=0;fillColor=none;collapsible=0;dropTarget=0;points=[[0,0.5],[1,0.5]];portConstraint=eastwest;top=0;left=0;right=0;bottom=0;" vertex="1" parent="7FymyZqYQRA0W6Gg-ok5-170">
          <mxGeometry y="90" width="180" height="30" as="geometry" />
        </mxCell>
        <mxCell id="7FymyZqYQRA0W6Gg-ok5-178" value="" style="shape=partialRectangle;connectable=0;fillColor=none;top=0;left=0;bottom=0;right=0;editable=1;overflow=hidden;whiteSpace=wrap;html=1;" vertex="1" parent="7FymyZqYQRA0W6Gg-ok5-177">
          <mxGeometry width="30" height="30" as="geometry">
            <mxRectangle width="30" height="30" as="alternateBounds" />
          </mxGeometry>
        </mxCell>
        <mxCell id="7FymyZqYQRA0W6Gg-ok5-179" value="名" style="shape=partialRectangle;connectable=0;fillColor=none;top=0;left=0;bottom=0;right=0;align=left;spacingLeft=6;overflow=hidden;whiteSpace=wrap;html=1;" vertex="1" parent="7FymyZqYQRA0W6Gg-ok5-177">
          <mxGeometry x="30" width="150" height="30" as="geometry">
            <mxRectangle width="150" height="30" as="alternateBounds" />
          </mxGeometry>
        </mxCell>
        <mxCell id="7FymyZqYQRA0W6Gg-ok5-180" value="" style="shape=tableRow;horizontal=0;startSize=0;swimlaneHead=0;swimlaneBody=0;fillColor=none;collapsible=0;dropTarget=0;points=[[0,0.5],[1,0.5]];portConstraint=eastwest;top=0;left=0;right=0;bottom=0;" vertex="1" parent="7FymyZqYQRA0W6Gg-ok5-170">
          <mxGeometry y="120" width="180" height="30" as="geometry" />
        </mxCell>
        <mxCell id="7FymyZqYQRA0W6Gg-ok5-181" value="" style="shape=partialRectangle;connectable=0;fillColor=none;top=0;left=0;bottom=0;right=0;editable=1;overflow=hidden;whiteSpace=wrap;html=1;" vertex="1" parent="7FymyZqYQRA0W6Gg-ok5-180">
          <mxGeometry width="30" height="30" as="geometry">
            <mxRectangle width="30" height="30" as="alternateBounds" />
          </mxGeometry>
        </mxCell>
        <mxCell id="7FymyZqYQRA0W6Gg-ok5-182" value="メールアドレス" style="shape=partialRectangle;connectable=0;fillColor=none;top=0;left=0;bottom=0;right=0;align=left;spacingLeft=6;overflow=hidden;whiteSpace=wrap;html=1;" vertex="1" parent="7FymyZqYQRA0W6Gg-ok5-180">
          <mxGeometry x="30" width="150" height="30" as="geometry">
            <mxRectangle width="150" height="30" as="alternateBounds" />
          </mxGeometry>
        </mxCell>
        <mxCell id="7FymyZqYQRA0W6Gg-ok5-183" value="" style="shape=tableRow;horizontal=0;startSize=0;swimlaneHead=0;swimlaneBody=0;fillColor=none;collapsible=0;dropTarget=0;points=[[0,0.5],[1,0.5]];portConstraint=eastwest;top=0;left=0;right=0;bottom=0;" vertex="1" parent="7FymyZqYQRA0W6Gg-ok5-170">
          <mxGeometry y="150" width="180" height="30" as="geometry" />
        </mxCell>
        <mxCell id="7FymyZqYQRA0W6Gg-ok5-184" value="" style="shape=partialRectangle;connectable=0;fillColor=none;top=0;left=0;bottom=0;right=0;editable=1;overflow=hidden;whiteSpace=wrap;html=1;" vertex="1" parent="7FymyZqYQRA0W6Gg-ok5-183">
          <mxGeometry width="30" height="30" as="geometry">
            <mxRectangle width="30" height="30" as="alternateBounds" />
          </mxGeometry>
        </mxCell>
        <mxCell id="7FymyZqYQRA0W6Gg-ok5-185" value="パスワード" style="shape=partialRectangle;connectable=0;fillColor=none;top=0;left=0;bottom=0;right=0;align=left;spacingLeft=6;overflow=hidden;whiteSpace=wrap;html=1;" vertex="1" parent="7FymyZqYQRA0W6Gg-ok5-183">
          <mxGeometry x="30" width="150" height="30" as="geometry">
            <mxRectangle width="150" height="30" as="alternateBounds" />
          </mxGeometry>
        </mxCell>
        <mxCell id="7FymyZqYQRA0W6Gg-ok5-186" value="" style="shape=tableRow;horizontal=0;startSize=0;swimlaneHead=0;swimlaneBody=0;fillColor=none;collapsible=0;dropTarget=0;points=[[0,0.5],[1,0.5]];portConstraint=eastwest;top=0;left=0;right=0;bottom=0;" vertex="1" parent="7FymyZqYQRA0W6Gg-ok5-170">
          <mxGeometry y="180" width="180" height="30" as="geometry" />
        </mxCell>
        <mxCell id="7FymyZqYQRA0W6Gg-ok5-187" value="" style="shape=partialRectangle;connectable=0;fillColor=none;top=0;left=0;bottom=0;right=0;editable=1;overflow=hidden;whiteSpace=wrap;html=1;" vertex="1" parent="7FymyZqYQRA0W6Gg-ok5-186">
          <mxGeometry width="30" height="30" as="geometry">
            <mxRectangle width="30" height="30" as="alternateBounds" />
          </mxGeometry>
        </mxCell>
        <mxCell id="7FymyZqYQRA0W6Gg-ok5-188" value="作成日" style="shape=partialRectangle;connectable=0;fillColor=none;top=0;left=0;bottom=0;right=0;align=left;spacingLeft=6;overflow=hidden;whiteSpace=wrap;html=1;" vertex="1" parent="7FymyZqYQRA0W6Gg-ok5-186">
          <mxGeometry x="30" width="150" height="30" as="geometry">
            <mxRectangle width="150" height="30" as="alternateBounds" />
          </mxGeometry>
        </mxCell>
        <mxCell id="7FymyZqYQRA0W6Gg-ok5-189" value="" style="shape=tableRow;horizontal=0;startSize=0;swimlaneHead=0;swimlaneBody=0;fillColor=none;collapsible=0;dropTarget=0;points=[[0,0.5],[1,0.5]];portConstraint=eastwest;top=0;left=0;right=0;bottom=0;" vertex="1" parent="7FymyZqYQRA0W6Gg-ok5-170">
          <mxGeometry y="210" width="180" height="30" as="geometry" />
        </mxCell>
        <mxCell id="7FymyZqYQRA0W6Gg-ok5-190" value="" style="shape=partialRectangle;connectable=0;fillColor=none;top=0;left=0;bottom=0;right=0;editable=1;overflow=hidden;whiteSpace=wrap;html=1;" vertex="1" parent="7FymyZqYQRA0W6Gg-ok5-189">
          <mxGeometry width="30" height="30" as="geometry">
            <mxRectangle width="30" height="30" as="alternateBounds" />
          </mxGeometry>
        </mxCell>
        <mxCell id="7FymyZqYQRA0W6Gg-ok5-191" value="更新日" style="shape=partialRectangle;connectable=0;fillColor=none;top=0;left=0;bottom=0;right=0;align=left;spacingLeft=6;overflow=hidden;whiteSpace=wrap;html=1;" vertex="1" parent="7FymyZqYQRA0W6Gg-ok5-189">
          <mxGeometry x="30" width="150" height="30" as="geometry">
            <mxRectangle width="150" height="30" as="alternateBounds" />
          </mxGeometry>
        </mxCell>
      </root>
    </mxGraphModel>
  </diagram>
  <diagram name="ログインページ（トップページ）" id="bBkOIr3fOXvzeNOrHkAh">
    <mxGraphModel dx="1714" dy="892" grid="1" gridSize="10" guides="1" tooltips="1" connect="1" arrows="1" fold="1" page="1" pageScale="1" pageWidth="1100" pageHeight="850" background="none" math="0" shadow="0">
      <root>
        <mxCell id="SLdYFlEGlpMUPTR5uZgC-0" />
        <mxCell id="SLdYFlEGlpMUPTR5uZgC-1" parent="SLdYFlEGlpMUPTR5uZgC-0" />
        <mxCell id="SLdYFlEGlpMUPTR5uZgC-2" value="" style="whiteSpace=wrap;html=1;rounded=0;shadow=0;labelBackgroundColor=none;strokeColor=#000000;strokeWidth=1;fillColor=none;fontFamily=Verdana;fontSize=12;fontColor=#000000;align=center;comic=1;" vertex="1" parent="SLdYFlEGlpMUPTR5uZgC-1">
          <mxGeometry x="10" y="34" width="1060" height="810" as="geometry" />
        </mxCell>
        <mxCell id="SLdYFlEGlpMUPTR5uZgC-3" value="LOGO" style="whiteSpace=wrap;html=1;rounded=0;shadow=0;labelBackgroundColor=none;strokeWidth=1;fontFamily=Verdana;fontSize=28;align=center;comic=1;" vertex="1" parent="SLdYFlEGlpMUPTR5uZgC-1">
          <mxGeometry x="40" y="60" width="190" height="50" as="geometry" />
        </mxCell>
        <mxCell id="SLdYFlEGlpMUPTR5uZgC-4" value="ホーム&lt;br&gt;" style="text;html=1;points=[];align=left;verticalAlign=top;spacingTop=-4;fontSize=14;fontFamily=Verdana" vertex="1" parent="SLdYFlEGlpMUPTR5uZgC-1">
          <mxGeometry x="700" y="70" width="60" height="20" as="geometry" />
        </mxCell>
        <mxCell id="SLdYFlEGlpMUPTR5uZgC-5" value="アバウト&lt;br&gt;" style="text;html=1;points=[];align=left;verticalAlign=top;spacingTop=-4;fontSize=14;fontFamily=Verdana" vertex="1" parent="SLdYFlEGlpMUPTR5uZgC-1">
          <mxGeometry x="780" y="70" width="60" height="20" as="geometry" />
        </mxCell>
        <mxCell id="SLdYFlEGlpMUPTR5uZgC-6" value="新規登録" style="text;html=1;points=[];align=left;verticalAlign=top;spacingTop=-4;fontSize=14;fontFamily=Verdana" vertex="1" parent="SLdYFlEGlpMUPTR5uZgC-1">
          <mxGeometry x="880" y="75" width="60" height="20" as="geometry" />
        </mxCell>
        <mxCell id="SLdYFlEGlpMUPTR5uZgC-7" value="ログイン&lt;br&gt;" style="text;html=1;points=[];align=left;verticalAlign=top;spacingTop=-4;fontSize=14;fontFamily=Verdana" vertex="1" parent="SLdYFlEGlpMUPTR5uZgC-1">
          <mxGeometry x="980" y="75" width="60" height="20" as="geometry" />
        </mxCell>
        <mxCell id="SLdYFlEGlpMUPTR5uZgC-8" value="" style="line;strokeWidth=1;html=1;rounded=0;shadow=0;labelBackgroundColor=none;fillColor=none;fontFamily=Verdana;fontSize=14;fontColor=#000000;align=center;comic=1;" vertex="1" parent="SLdYFlEGlpMUPTR5uZgC-1">
          <mxGeometry x="20" y="140" width="1060" height="10" as="geometry" />
        </mxCell>
        <mxCell id="SLdYFlEGlpMUPTR5uZgC-9" value="ゲストログイン（閲覧用）" style="rounded=0;whiteSpace=wrap;html=1;" vertex="1" parent="SLdYFlEGlpMUPTR5uZgC-1">
          <mxGeometry x="195" y="350" width="690" height="50" as="geometry" />
        </mxCell>
        <mxCell id="SLdYFlEGlpMUPTR5uZgC-10" value="ログイン" style="rounded=0;whiteSpace=wrap;html=1;" vertex="1" parent="SLdYFlEGlpMUPTR5uZgC-1">
          <mxGeometry x="195" y="440" width="690" height="50" as="geometry" />
        </mxCell>
        <mxCell id="SLdYFlEGlpMUPTR5uZgC-11" value="新規登録" style="rounded=0;whiteSpace=wrap;html=1;" vertex="1" parent="SLdYFlEGlpMUPTR5uZgC-1">
          <mxGeometry x="195" y="530" width="690" height="50" as="geometry" />
        </mxCell>
        <mxCell id="SLdYFlEGlpMUPTR5uZgC-12" value="食事指導　todoリスト" style="text;strokeColor=none;fillColor=none;html=1;fontSize=24;fontStyle=1;verticalAlign=middle;align=center;" vertex="1" parent="SLdYFlEGlpMUPTR5uZgC-1">
          <mxGeometry x="480" y="190" width="100" height="40" as="geometry" />
        </mxCell>
        <mxCell id="-x1Zo3L2Zo9wFWQvNc6J-0" style="edgeStyle=orthogonalEdgeStyle;rounded=0;orthogonalLoop=1;jettySize=auto;html=1;exitX=0.5;exitY=1;exitDx=0;exitDy=0;" edge="1" parent="SLdYFlEGlpMUPTR5uZgC-1" source="SLdYFlEGlpMUPTR5uZgC-2" target="SLdYFlEGlpMUPTR5uZgC-2">
          <mxGeometry relative="1" as="geometry" />
        </mxCell>
      </root>
    </mxGraphModel>
  </diagram>
  <diagram name="アバウト" id="Y3IOJfRVZ_6gOcHVrqxo">
    <mxGraphModel dx="1505" dy="891" grid="1" gridSize="10" guides="1" tooltips="1" connect="1" arrows="1" fold="1" page="1" pageScale="1" pageWidth="1100" pageHeight="850" background="none" math="0" shadow="0">
      <root>
        <mxCell id="Zx3RZFB_4RxtkHf1riJq-0" />
        <mxCell id="Zx3RZFB_4RxtkHf1riJq-1" parent="Zx3RZFB_4RxtkHf1riJq-0" />
        <mxCell id="Zx3RZFB_4RxtkHf1riJq-2" value="" style="whiteSpace=wrap;html=1;rounded=0;shadow=0;labelBackgroundColor=none;strokeColor=#000000;strokeWidth=1;fillColor=none;fontFamily=Verdana;fontSize=12;fontColor=#000000;align=center;comic=1;" vertex="1" parent="Zx3RZFB_4RxtkHf1riJq-1">
          <mxGeometry x="10" y="34" width="1060" height="810" as="geometry" />
        </mxCell>
        <mxCell id="Zx3RZFB_4RxtkHf1riJq-3" value="LOGO" style="whiteSpace=wrap;html=1;rounded=0;shadow=0;labelBackgroundColor=none;strokeWidth=1;fontFamily=Verdana;fontSize=28;align=center;comic=1;" vertex="1" parent="Zx3RZFB_4RxtkHf1riJq-1">
          <mxGeometry x="40" y="60" width="190" height="50" as="geometry" />
        </mxCell>
        <mxCell id="Zx3RZFB_4RxtkHf1riJq-4" value="ホーム&lt;br&gt;" style="text;html=1;points=[];align=left;verticalAlign=top;spacingTop=-4;fontSize=14;fontFamily=Verdana" vertex="1" parent="Zx3RZFB_4RxtkHf1riJq-1">
          <mxGeometry x="700" y="70" width="60" height="20" as="geometry" />
        </mxCell>
        <mxCell id="Zx3RZFB_4RxtkHf1riJq-5" value="アバウト&lt;br&gt;" style="text;html=1;points=[];align=left;verticalAlign=top;spacingTop=-4;fontSize=14;fontFamily=Verdana" vertex="1" parent="Zx3RZFB_4RxtkHf1riJq-1">
          <mxGeometry x="780" y="70" width="60" height="20" as="geometry" />
        </mxCell>
        <mxCell id="Zx3RZFB_4RxtkHf1riJq-6" value="新規登録" style="text;html=1;points=[];align=left;verticalAlign=top;spacingTop=-4;fontSize=14;fontFamily=Verdana" vertex="1" parent="Zx3RZFB_4RxtkHf1riJq-1">
          <mxGeometry x="880" y="75" width="60" height="20" as="geometry" />
        </mxCell>
        <mxCell id="Zx3RZFB_4RxtkHf1riJq-7" value="ログイン&lt;br&gt;" style="text;html=1;points=[];align=left;verticalAlign=top;spacingTop=-4;fontSize=14;fontFamily=Verdana" vertex="1" parent="Zx3RZFB_4RxtkHf1riJq-1">
          <mxGeometry x="980" y="75" width="60" height="20" as="geometry" />
        </mxCell>
        <mxCell id="Zx3RZFB_4RxtkHf1riJq-8" value="" style="line;strokeWidth=1;html=1;rounded=0;shadow=0;labelBackgroundColor=none;fillColor=none;fontFamily=Verdana;fontSize=14;fontColor=#000000;align=center;comic=1;" vertex="1" parent="Zx3RZFB_4RxtkHf1riJq-1">
          <mxGeometry x="20" y="140" width="1060" height="10" as="geometry" />
        </mxCell>
        <mxCell id="Zx3RZFB_4RxtkHf1riJq-12" value="食事指導　todoリスト" style="text;strokeColor=none;fillColor=none;html=1;fontSize=24;fontStyle=1;verticalAlign=middle;align=center;" vertex="1" parent="Zx3RZFB_4RxtkHf1riJq-1">
          <mxGeometry x="490" y="220" width="100" height="40" as="geometry" />
        </mxCell>
        <mxCell id="Zx3RZFB_4RxtkHf1riJq-13" style="edgeStyle=orthogonalEdgeStyle;rounded=0;orthogonalLoop=1;jettySize=auto;html=1;exitX=0.5;exitY=1;exitDx=0;exitDy=0;" edge="1" parent="Zx3RZFB_4RxtkHf1riJq-1" source="Zx3RZFB_4RxtkHf1riJq-2" target="Zx3RZFB_4RxtkHf1riJq-2">
          <mxGeometry relative="1" as="geometry" />
        </mxCell>
        <mxCell id="Mb6kByGSxv6RJ7frfD61-0" value="&lt;font style=&quot;font-size: 36px;&quot;&gt;このサイトは、〇〇で食事指導を行った方が、&lt;br&gt;&lt;br&gt;食事をこれから良い方向に変更していくためのアプリです。&lt;br&gt;&lt;br&gt;毎日次回までの課題をTodoリストで確認していただき、&lt;br&gt;&lt;br&gt;より食事を意識していきましょう！&lt;/font&gt;" style="text;strokeColor=none;fillColor=none;html=1;fontSize=24;fontStyle=1;verticalAlign=middle;align=center;" vertex="1" parent="Zx3RZFB_4RxtkHf1riJq-1">
          <mxGeometry x="500" y="380" width="100" height="170" as="geometry" />
        </mxCell>
      </root>
    </mxGraphModel>
  </diagram>
  <diagram name="ホーム画面" id="tbV8qPIWAnCJ5kte193r">
    <mxGraphModel dx="1505" dy="891" grid="1" gridSize="10" guides="1" tooltips="1" connect="1" arrows="1" fold="1" page="1" pageScale="1" pageWidth="1100" pageHeight="850" background="none" math="0" shadow="0">
      <root>
        <mxCell id="GlsjCDjtG8J7TNmpqK3B-0" />
        <mxCell id="GlsjCDjtG8J7TNmpqK3B-1" parent="GlsjCDjtG8J7TNmpqK3B-0" />
        <mxCell id="GlsjCDjtG8J7TNmpqK3B-2" value="" style="whiteSpace=wrap;html=1;rounded=0;shadow=0;labelBackgroundColor=none;strokeColor=#000000;strokeWidth=1;fillColor=none;fontFamily=Verdana;fontSize=12;fontColor=#000000;align=center;comic=1;" vertex="1" parent="GlsjCDjtG8J7TNmpqK3B-1">
          <mxGeometry x="20" y="10" width="1060" height="810" as="geometry" />
        </mxCell>
        <mxCell id="GlsjCDjtG8J7TNmpqK3B-3" value="LOGO" style="whiteSpace=wrap;html=1;rounded=0;shadow=0;labelBackgroundColor=none;strokeWidth=1;fontFamily=Verdana;fontSize=28;align=center;comic=1;" vertex="1" parent="GlsjCDjtG8J7TNmpqK3B-1">
          <mxGeometry x="40" y="60" width="190" height="50" as="geometry" />
        </mxCell>
        <mxCell id="GlsjCDjtG8J7TNmpqK3B-4" value="ホーム&lt;br&gt;" style="text;html=1;points=[];align=left;verticalAlign=top;spacingTop=-4;fontSize=14;fontFamily=Verdana" vertex="1" parent="GlsjCDjtG8J7TNmpqK3B-1">
          <mxGeometry x="690" y="75" width="60" height="20" as="geometry" />
        </mxCell>
        <mxCell id="GlsjCDjtG8J7TNmpqK3B-6" value="投稿一覧" style="text;html=1;points=[];align=left;verticalAlign=top;spacingTop=-4;fontSize=14;fontFamily=Verdana" vertex="1" parent="GlsjCDjtG8J7TNmpqK3B-1">
          <mxGeometry x="880" y="75" width="60" height="20" as="geometry" />
        </mxCell>
        <mxCell id="GlsjCDjtG8J7TNmpqK3B-7" value="ログアウト" style="text;html=1;points=[];align=left;verticalAlign=top;spacingTop=-4;fontSize=14;fontFamily=Verdana" vertex="1" parent="GlsjCDjtG8J7TNmpqK3B-1">
          <mxGeometry x="980" y="75" width="60" height="20" as="geometry" />
        </mxCell>
        <mxCell id="GlsjCDjtG8J7TNmpqK3B-8" value="" style="line;strokeWidth=1;html=1;rounded=0;shadow=0;labelBackgroundColor=none;fillColor=none;fontFamily=Verdana;fontSize=14;fontColor=#000000;align=center;comic=1;" vertex="1" parent="GlsjCDjtG8J7TNmpqK3B-1">
          <mxGeometry x="20" y="140" width="1060" height="10" as="geometry" />
        </mxCell>
        <mxCell id="GlsjCDjtG8J7TNmpqK3B-12" value="ホーム画面（ユーザー）" style="text;strokeColor=none;fillColor=none;html=1;fontSize=24;fontStyle=1;verticalAlign=middle;align=center;" vertex="1" parent="GlsjCDjtG8J7TNmpqK3B-1">
          <mxGeometry x="480" y="140" width="100" height="90" as="geometry" />
        </mxCell>
        <mxCell id="5BjVyOaSQFulbhW0VS1V-1" value="&lt;br&gt;⚫︎タスク" style="text;strokeColor=none;fillColor=none;html=1;fontSize=24;fontStyle=1;verticalAlign=middle;align=center;" vertex="1" parent="GlsjCDjtG8J7TNmpqK3B-1">
          <mxGeometry x="150" y="250" width="100" height="41" as="geometry" />
        </mxCell>
        <mxCell id="5BjVyOaSQFulbhW0VS1V-2" value="&lt;br&gt;⚫︎タスク" style="text;strokeColor=none;fillColor=none;html=1;fontSize=24;fontStyle=1;verticalAlign=middle;align=center;" vertex="1" parent="GlsjCDjtG8J7TNmpqK3B-1">
          <mxGeometry x="150" y="330" width="100" height="41" as="geometry" />
        </mxCell>
        <mxCell id="5BjVyOaSQFulbhW0VS1V-3" value="&lt;br&gt;⚫︎タスク" style="text;strokeColor=none;fillColor=none;html=1;fontSize=24;fontStyle=1;verticalAlign=middle;align=center;" vertex="1" parent="GlsjCDjtG8J7TNmpqK3B-1">
          <mxGeometry x="150" y="410" width="100" height="41" as="geometry" />
        </mxCell>
        <mxCell id="5BjVyOaSQFulbhW0VS1V-4" value="" style="rounded=0;whiteSpace=wrap;html=1;" vertex="1" parent="GlsjCDjtG8J7TNmpqK3B-1">
          <mxGeometry x="727.5" y="260" width="215" height="60" as="geometry" />
        </mxCell>
        <mxCell id="5BjVyOaSQFulbhW0VS1V-5" value="" style="rounded=0;whiteSpace=wrap;html=1;" vertex="1" parent="GlsjCDjtG8J7TNmpqK3B-1">
          <mxGeometry x="725" y="385" width="215" height="60" as="geometry" />
        </mxCell>
        <mxCell id="5BjVyOaSQFulbhW0VS1V-6" value="" style="rounded=0;whiteSpace=wrap;html=1;" vertex="1" parent="GlsjCDjtG8J7TNmpqK3B-1">
          <mxGeometry x="730" y="520" width="270" height="170" as="geometry" />
        </mxCell>
        <mxCell id="5BjVyOaSQFulbhW0VS1V-7" style="edgeStyle=orthogonalEdgeStyle;rounded=0;orthogonalLoop=1;jettySize=auto;html=1;exitX=0.5;exitY=1;exitDx=0;exitDy=0;entryX=0.6;entryY=0.244;entryDx=0;entryDy=0;entryPerimeter=0;" edge="1" parent="GlsjCDjtG8J7TNmpqK3B-1" source="5BjVyOaSQFulbhW0VS1V-1" target="5BjVyOaSQFulbhW0VS1V-1">
          <mxGeometry relative="1" as="geometry" />
        </mxCell>
        <mxCell id="5BjVyOaSQFulbhW0VS1V-8" value="日付" style="text;strokeColor=none;fillColor=none;html=1;fontSize=24;fontStyle=1;verticalAlign=middle;align=center;" vertex="1" parent="GlsjCDjtG8J7TNmpqK3B-1">
          <mxGeometry x="700" y="210" width="100" height="40" as="geometry" />
        </mxCell>
        <mxCell id="5BjVyOaSQFulbhW0VS1V-11" value="食事（朝昼夕）" style="text;strokeColor=none;fillColor=none;html=1;fontSize=24;fontStyle=1;verticalAlign=middle;align=center;" vertex="1" parent="GlsjCDjtG8J7TNmpqK3B-1">
          <mxGeometry x="760" y="340" width="100" height="40" as="geometry" />
        </mxCell>
        <mxCell id="5BjVyOaSQFulbhW0VS1V-12" value="食事内容" style="text;strokeColor=none;fillColor=none;html=1;fontSize=24;fontStyle=1;verticalAlign=middle;align=center;" vertex="1" parent="GlsjCDjtG8J7TNmpqK3B-1">
          <mxGeometry x="730" y="470" width="100" height="40" as="geometry" />
        </mxCell>
        <mxCell id="5BjVyOaSQFulbhW0VS1V-13" value="&lt;font style=&quot;font-size: 24px;&quot;&gt;投稿&lt;/font&gt;" style="rounded=0;whiteSpace=wrap;html=1;" vertex="1" parent="GlsjCDjtG8J7TNmpqK3B-1">
          <mxGeometry x="910" y="740" width="95" height="40" as="geometry" />
        </mxCell>
        <mxCell id="RpiXJaGchzcfq250MP11-0" value="コメント一覧" style="text;html=1;points=[];align=left;verticalAlign=top;spacingTop=-4;fontSize=14;fontFamily=Verdana" vertex="1" parent="GlsjCDjtG8J7TNmpqK3B-1">
          <mxGeometry x="770" y="75" width="60" height="20" as="geometry" />
        </mxCell>
        <mxCell id="tBY1BLIZv2EEiyfXBV6w-0" value="⚫︎次回までの課題" style="text;strokeColor=none;fillColor=none;html=1;fontSize=24;fontStyle=1;verticalAlign=middle;align=center;" vertex="1" parent="GlsjCDjtG8J7TNmpqK3B-1">
          <mxGeometry x="120" y="210" width="100" height="40" as="geometry" />
        </mxCell>
      </root>
    </mxGraphModel>
  </diagram>
  <diagram name="コメント一覧" id="IBYlbMJCFk9q0_9lYdq9">
    <mxGraphModel dx="1505" dy="891" grid="1" gridSize="10" guides="1" tooltips="1" connect="1" arrows="1" fold="1" page="1" pageScale="1" pageWidth="1100" pageHeight="850" background="none" math="0" shadow="0">
      <root>
        <mxCell id="93KIb9QGO3vwMFLvD1kc-0" />
        <mxCell id="93KIb9QGO3vwMFLvD1kc-1" parent="93KIb9QGO3vwMFLvD1kc-0" />
        <mxCell id="93KIb9QGO3vwMFLvD1kc-2" value="" style="whiteSpace=wrap;html=1;rounded=0;shadow=0;labelBackgroundColor=none;strokeColor=#000000;strokeWidth=1;fillColor=none;fontFamily=Verdana;fontSize=12;fontColor=#000000;align=center;comic=1;" vertex="1" parent="93KIb9QGO3vwMFLvD1kc-1">
          <mxGeometry x="20" y="40" width="1060" height="810" as="geometry" />
        </mxCell>
        <mxCell id="93KIb9QGO3vwMFLvD1kc-3" value="LOGO" style="whiteSpace=wrap;html=1;rounded=0;shadow=0;labelBackgroundColor=none;strokeWidth=1;fontFamily=Verdana;fontSize=28;align=center;comic=1;" vertex="1" parent="93KIb9QGO3vwMFLvD1kc-1">
          <mxGeometry x="40" y="60" width="190" height="50" as="geometry" />
        </mxCell>
        <mxCell id="93KIb9QGO3vwMFLvD1kc-4" value="ホーム&lt;br&gt;" style="text;html=1;points=[];align=left;verticalAlign=top;spacingTop=-4;fontSize=14;fontFamily=Verdana" vertex="1" parent="93KIb9QGO3vwMFLvD1kc-1">
          <mxGeometry x="690" y="75" width="60" height="20" as="geometry" />
        </mxCell>
        <mxCell id="93KIb9QGO3vwMFLvD1kc-5" value="投稿一覧" style="text;html=1;points=[];align=left;verticalAlign=top;spacingTop=-4;fontSize=14;fontFamily=Verdana" vertex="1" parent="93KIb9QGO3vwMFLvD1kc-1">
          <mxGeometry x="880" y="75" width="60" height="20" as="geometry" />
        </mxCell>
        <mxCell id="93KIb9QGO3vwMFLvD1kc-6" value="ログアウト" style="text;html=1;points=[];align=left;verticalAlign=top;spacingTop=-4;fontSize=14;fontFamily=Verdana" vertex="1" parent="93KIb9QGO3vwMFLvD1kc-1">
          <mxGeometry x="980" y="75" width="60" height="20" as="geometry" />
        </mxCell>
        <mxCell id="93KIb9QGO3vwMFLvD1kc-7" value="" style="line;strokeWidth=1;html=1;rounded=0;shadow=0;labelBackgroundColor=none;fillColor=none;fontFamily=Verdana;fontSize=14;fontColor=#000000;align=center;comic=1;" vertex="1" parent="93KIb9QGO3vwMFLvD1kc-1">
          <mxGeometry x="20" y="140" width="1060" height="10" as="geometry" />
        </mxCell>
        <mxCell id="93KIb9QGO3vwMFLvD1kc-8" value="コメント一覧（ユーザー）" style="text;strokeColor=none;fillColor=none;html=1;fontSize=24;fontStyle=1;verticalAlign=middle;align=center;" vertex="1" parent="93KIb9QGO3vwMFLvD1kc-1">
          <mxGeometry x="480" y="140" width="100" height="90" as="geometry" />
        </mxCell>
        <mxCell id="93KIb9QGO3vwMFLvD1kc-9" value="&lt;br&gt;⚫︎タスク" style="text;strokeColor=none;fillColor=none;html=1;fontSize=24;fontStyle=1;verticalAlign=middle;align=center;" vertex="1" parent="93KIb9QGO3vwMFLvD1kc-1">
          <mxGeometry x="150" y="250" width="100" height="41" as="geometry" />
        </mxCell>
        <mxCell id="93KIb9QGO3vwMFLvD1kc-10" value="&lt;br&gt;⚫︎タスク" style="text;strokeColor=none;fillColor=none;html=1;fontSize=24;fontStyle=1;verticalAlign=middle;align=center;" vertex="1" parent="93KIb9QGO3vwMFLvD1kc-1">
          <mxGeometry x="150" y="330" width="100" height="41" as="geometry" />
        </mxCell>
        <mxCell id="93KIb9QGO3vwMFLvD1kc-11" value="&lt;br&gt;⚫︎タスク" style="text;strokeColor=none;fillColor=none;html=1;fontSize=24;fontStyle=1;verticalAlign=middle;align=center;" vertex="1" parent="93KIb9QGO3vwMFLvD1kc-1">
          <mxGeometry x="150" y="410" width="100" height="41" as="geometry" />
        </mxCell>
        <mxCell id="93KIb9QGO3vwMFLvD1kc-15" style="edgeStyle=orthogonalEdgeStyle;rounded=0;orthogonalLoop=1;jettySize=auto;html=1;exitX=0.5;exitY=1;exitDx=0;exitDy=0;entryX=0.6;entryY=0.244;entryDx=0;entryDy=0;entryPerimeter=0;" edge="1" parent="93KIb9QGO3vwMFLvD1kc-1" source="93KIb9QGO3vwMFLvD1kc-9" target="93KIb9QGO3vwMFLvD1kc-9">
          <mxGeometry relative="1" as="geometry" />
        </mxCell>
        <mxCell id="93KIb9QGO3vwMFLvD1kc-16" value="日付" style="text;strokeColor=none;fillColor=none;html=1;fontSize=24;fontStyle=1;verticalAlign=middle;align=center;" vertex="1" parent="93KIb9QGO3vwMFLvD1kc-1">
          <mxGeometry x="690" y="210" width="100" height="40" as="geometry" />
        </mxCell>
        <mxCell id="93KIb9QGO3vwMFLvD1kc-17" value="食事" style="text;strokeColor=none;fillColor=none;html=1;fontSize=24;fontStyle=1;verticalAlign=middle;align=center;" vertex="1" parent="93KIb9QGO3vwMFLvD1kc-1">
          <mxGeometry x="770" y="210" width="100" height="40" as="geometry" />
        </mxCell>
        <mxCell id="93KIb9QGO3vwMFLvD1kc-18" value="食事内容" style="text;strokeColor=none;fillColor=none;html=1;fontSize=24;fontStyle=1;verticalAlign=middle;align=center;" vertex="1" parent="93KIb9QGO3vwMFLvD1kc-1">
          <mxGeometry x="870" y="210" width="100" height="40" as="geometry" />
        </mxCell>
        <mxCell id="93KIb9QGO3vwMFLvD1kc-19" value="&lt;font style=&quot;font-size: 24px;&quot;&gt;投稿&lt;/font&gt;" style="rounded=0;whiteSpace=wrap;html=1;" vertex="1" parent="93KIb9QGO3vwMFLvD1kc-1">
          <mxGeometry x="910" y="740" width="95" height="40" as="geometry" />
        </mxCell>
        <mxCell id="93KIb9QGO3vwMFLvD1kc-20" value="コメント一覧" style="text;html=1;points=[];align=left;verticalAlign=top;spacingTop=-4;fontSize=14;fontFamily=Verdana" vertex="1" parent="93KIb9QGO3vwMFLvD1kc-1">
          <mxGeometry x="770" y="75" width="60" height="20" as="geometry" />
        </mxCell>
        <mxCell id="IBmia4Basv12_f4EBgXl-2" value="&lt;font style=&quot;font-size: 18px;&quot;&gt;コメント&lt;/font&gt;" style="rounded=0;whiteSpace=wrap;html=1;" vertex="1" parent="93KIb9QGO3vwMFLvD1kc-1">
          <mxGeometry x="700" y="250" width="350" height="60" as="geometry" />
        </mxCell>
        <mxCell id="NrF4yK8DdAQYB7FN9Jmj-0" value="⚫︎次回までの課題" style="text;strokeColor=none;fillColor=none;html=1;fontSize=24;fontStyle=1;verticalAlign=middle;align=center;" vertex="1" parent="93KIb9QGO3vwMFLvD1kc-1">
          <mxGeometry x="110" y="210" width="100" height="40" as="geometry" />
        </mxCell>
      </root>
    </mxGraphModel>
  </diagram>
  <diagram name="投稿一覧" id="cIngChCGaCAiftrUkEGw">
    <mxGraphModel dx="1714" dy="892" grid="1" gridSize="10" guides="1" tooltips="1" connect="1" arrows="1" fold="1" page="1" pageScale="1" pageWidth="1100" pageHeight="850" background="none" math="0" shadow="0">
      <root>
        <mxCell id="Ch7lIyCtt8NVPBA44HGJ-0" />
        <mxCell id="Ch7lIyCtt8NVPBA44HGJ-1" parent="Ch7lIyCtt8NVPBA44HGJ-0" />
        <mxCell id="Ch7lIyCtt8NVPBA44HGJ-2" value="" style="whiteSpace=wrap;html=1;rounded=0;shadow=0;labelBackgroundColor=none;strokeColor=#000000;strokeWidth=1;fillColor=none;fontFamily=Verdana;fontSize=12;fontColor=#000000;align=center;comic=1;" vertex="1" parent="Ch7lIyCtt8NVPBA44HGJ-1">
          <mxGeometry x="20" y="40" width="1060" height="810" as="geometry" />
        </mxCell>
        <mxCell id="Ch7lIyCtt8NVPBA44HGJ-3" value="LOGO" style="whiteSpace=wrap;html=1;rounded=0;shadow=0;labelBackgroundColor=none;strokeWidth=1;fontFamily=Verdana;fontSize=28;align=center;comic=1;" vertex="1" parent="Ch7lIyCtt8NVPBA44HGJ-1">
          <mxGeometry x="40" y="60" width="190" height="50" as="geometry" />
        </mxCell>
        <mxCell id="Ch7lIyCtt8NVPBA44HGJ-4" value="ホーム&lt;br&gt;" style="text;html=1;points=[];align=left;verticalAlign=top;spacingTop=-4;fontSize=14;fontFamily=Verdana" vertex="1" parent="Ch7lIyCtt8NVPBA44HGJ-1">
          <mxGeometry x="690" y="75" width="60" height="20" as="geometry" />
        </mxCell>
        <mxCell id="Ch7lIyCtt8NVPBA44HGJ-5" value="投稿一覧" style="text;html=1;points=[];align=left;verticalAlign=top;spacingTop=-4;fontSize=14;fontFamily=Verdana" vertex="1" parent="Ch7lIyCtt8NVPBA44HGJ-1">
          <mxGeometry x="880" y="75" width="60" height="20" as="geometry" />
        </mxCell>
        <mxCell id="Ch7lIyCtt8NVPBA44HGJ-6" value="ログアウト" style="text;html=1;points=[];align=left;verticalAlign=top;spacingTop=-4;fontSize=14;fontFamily=Verdana" vertex="1" parent="Ch7lIyCtt8NVPBA44HGJ-1">
          <mxGeometry x="980" y="75" width="60" height="20" as="geometry" />
        </mxCell>
        <mxCell id="Ch7lIyCtt8NVPBA44HGJ-7" value="" style="line;strokeWidth=1;html=1;rounded=0;shadow=0;labelBackgroundColor=none;fillColor=none;fontFamily=Verdana;fontSize=14;fontColor=#000000;align=center;comic=1;" vertex="1" parent="Ch7lIyCtt8NVPBA44HGJ-1">
          <mxGeometry x="20" y="140" width="1060" height="10" as="geometry" />
        </mxCell>
        <mxCell id="Ch7lIyCtt8NVPBA44HGJ-8" value="投稿一覧（ユーザー）" style="text;strokeColor=none;fillColor=none;html=1;fontSize=24;fontStyle=1;verticalAlign=middle;align=center;" vertex="1" parent="Ch7lIyCtt8NVPBA44HGJ-1">
          <mxGeometry x="480" y="140" width="100" height="90" as="geometry" />
        </mxCell>
        <mxCell id="Ch7lIyCtt8NVPBA44HGJ-9" value="&lt;br&gt;⚫︎タスク" style="text;strokeColor=none;fillColor=none;html=1;fontSize=24;fontStyle=1;verticalAlign=middle;align=center;" vertex="1" parent="Ch7lIyCtt8NVPBA44HGJ-1">
          <mxGeometry x="100" y="269" width="100" height="41" as="geometry" />
        </mxCell>
        <mxCell id="Ch7lIyCtt8NVPBA44HGJ-10" value="&lt;br&gt;⚫︎タスク" style="text;strokeColor=none;fillColor=none;html=1;fontSize=24;fontStyle=1;verticalAlign=middle;align=center;" vertex="1" parent="Ch7lIyCtt8NVPBA44HGJ-1">
          <mxGeometry x="100" y="330" width="100" height="41" as="geometry" />
        </mxCell>
        <mxCell id="Ch7lIyCtt8NVPBA44HGJ-11" value="&lt;br&gt;⚫︎タスク" style="text;strokeColor=none;fillColor=none;html=1;fontSize=24;fontStyle=1;verticalAlign=middle;align=center;" vertex="1" parent="Ch7lIyCtt8NVPBA44HGJ-1">
          <mxGeometry x="100" y="384" width="100" height="41" as="geometry" />
        </mxCell>
        <mxCell id="Ch7lIyCtt8NVPBA44HGJ-17" value="コメント一覧" style="text;html=1;points=[];align=left;verticalAlign=top;spacingTop=-4;fontSize=14;fontFamily=Verdana" vertex="1" parent="Ch7lIyCtt8NVPBA44HGJ-1">
          <mxGeometry x="770" y="75" width="60" height="20" as="geometry" />
        </mxCell>
        <mxCell id="2UpxeF3yMaoHKTtfe6Kl-0" value="⚫︎次回までの課題" style="text;strokeColor=none;fillColor=none;html=1;fontSize=24;fontStyle=1;verticalAlign=middle;align=center;" vertex="1" parent="Ch7lIyCtt8NVPBA44HGJ-1">
          <mxGeometry x="110" y="210" width="100" height="40" as="geometry" />
        </mxCell>
        <mxCell id="2UpxeF3yMaoHKTtfe6Kl-3" value="日付　食事（朝昼夕）　食事内容" style="text;strokeColor=none;fillColor=none;html=1;fontSize=24;fontStyle=1;verticalAlign=middle;align=center;" vertex="1" parent="Ch7lIyCtt8NVPBA44HGJ-1">
          <mxGeometry x="560" y="230" width="100" height="40" as="geometry" />
        </mxCell>
        <mxCell id="2UpxeF3yMaoHKTtfe6Kl-5" value="日付　食事（朝昼夕）　食事内容" style="text;strokeColor=none;fillColor=none;html=1;fontSize=24;fontStyle=1;verticalAlign=middle;align=center;" vertex="1" parent="Ch7lIyCtt8NVPBA44HGJ-1">
          <mxGeometry x="560" y="300" width="100" height="40" as="geometry" />
        </mxCell>
        <mxCell id="2UpxeF3yMaoHKTtfe6Kl-7" value="日付　食事（朝昼夕）　食事内容" style="text;strokeColor=none;fillColor=none;html=1;fontSize=24;fontStyle=1;verticalAlign=middle;align=center;" vertex="1" parent="Ch7lIyCtt8NVPBA44HGJ-1">
          <mxGeometry x="560" y="370" width="100" height="40" as="geometry" />
        </mxCell>
        <mxCell id="2UpxeF3yMaoHKTtfe6Kl-8" value="日付　食事（朝昼夕）　食事内容" style="text;strokeColor=none;fillColor=none;html=1;fontSize=24;fontStyle=1;verticalAlign=middle;align=center;" vertex="1" parent="Ch7lIyCtt8NVPBA44HGJ-1">
          <mxGeometry x="560" y="430" width="100" height="40" as="geometry" />
        </mxCell>
        <mxCell id="2UpxeF3yMaoHKTtfe6Kl-9" value="日付　食事（朝昼夕）　食事内容" style="text;strokeColor=none;fillColor=none;html=1;fontSize=24;fontStyle=1;verticalAlign=middle;align=center;" vertex="1" parent="Ch7lIyCtt8NVPBA44HGJ-1">
          <mxGeometry x="560" y="500" width="100" height="40" as="geometry" />
        </mxCell>
        <mxCell id="2UpxeF3yMaoHKTtfe6Kl-10" value="日付　食事（朝昼夕）　食事内容" style="text;strokeColor=none;fillColor=none;html=1;fontSize=24;fontStyle=1;verticalAlign=middle;align=center;" vertex="1" parent="Ch7lIyCtt8NVPBA44HGJ-1">
          <mxGeometry x="560" y="570" width="100" height="40" as="geometry" />
        </mxCell>
        <mxCell id="2UpxeF3yMaoHKTtfe6Kl-11" value="日付　食事（朝昼夕）　食事内容" style="text;strokeColor=none;fillColor=none;html=1;fontSize=24;fontStyle=1;verticalAlign=middle;align=center;" vertex="1" parent="Ch7lIyCtt8NVPBA44HGJ-1">
          <mxGeometry x="560" y="650" width="100" height="40" as="geometry" />
        </mxCell>
        <mxCell id="2UpxeF3yMaoHKTtfe6Kl-12" value="日付　食事（朝昼夕）　食事内容" style="text;strokeColor=none;fillColor=none;html=1;fontSize=24;fontStyle=1;verticalAlign=middle;align=center;" vertex="1" parent="Ch7lIyCtt8NVPBA44HGJ-1">
          <mxGeometry x="560" y="730" width="100" height="40" as="geometry" />
        </mxCell>
      </root>
    </mxGraphModel>
  </diagram>
</mxfile>
